# Blender 3.6.1
# www.blender.org
mtllib rooms.mtl
o Plane
v -0.930000 0.072693 0.930000
v -1.000010 0.072693 1.000010
v 0.930000 0.072693 0.930000
v 1.000010 0.072693 1.000010
v -0.930000 0.072693 -0.930000
v -1.000010 0.072693 -1.000010
v 1.070000 0.072693 -1.000000
v 0.999990 0.072693 -0.930000
v 0.999990 0.072693 -1.000010
v 0.930000 0.072693 0.330000
v 1.000010 0.072693 0.400010
v 1.400000 0.072693 0.330000
v 1.400000 0.072693 0.400010
v 2.500000 0.072693 0.330000
v 2.500000 0.072693 0.400010
v 2.930000 0.072693 0.330000
v 3.000010 0.072693 0.400010
v 2.930000 0.072693 0.130000
v 3.000010 0.072693 0.200010
v 3.630000 0.072693 0.130000
v 3.700010 0.072693 0.200010
v 3.630000 0.072693 -0.499990
v 3.700000 0.072693 -0.570000
v 3.700010 0.072693 -0.499990
v 3.500000 0.072693 -0.499990
v 3.500000 0.072693 -0.570000
v 4.330000 0.072693 -0.570000
v 4.400010 0.072693 -0.499990
v 4.330000 0.072693 -1.430000
v 4.400010 0.072693 -1.500010
v 3.000010 0.072693 -1.430000
v 2.930000 0.072693 -1.430000
v 3.000000 0.072693 -1.500010
v 3.000010 0.072693 -0.500010
v 2.930000 0.072693 -0.430000
v 3.100000 0.072693 -0.500010
v 3.100000 0.072693 -0.430000
v 2.130000 0.072693 -1.430000
v 2.200010 0.072693 -1.500010
v 2.130000 0.072693 -1.670000
v 2.200010 0.072693 -1.599990
v 2.630000 0.072693 -1.670000
v 2.700010 0.072693 -1.599990
v 2.630000 0.072693 -2.030000
v 2.700010 0.072693 -2.100010
v 1.370000 0.072693 -2.030000
v 1.299990 0.072693 -2.100010
v 1.370000 0.072693 -1.670000
v 1.299990 0.072693 -1.599990
v 1.770000 0.072693 -1.670000
v 1.699990 0.072693 -1.599990
v 1.770000 0.072693 -1.430000
v 1.699990 0.072693 -1.500010
v 1.070000 0.072693 -1.430000
v 0.999990 0.072693 -1.500010
v 1.070000 0.072693 -0.100000
v 0.999990 0.072693 -0.100000
v -0.930000 0.072693 -0.100000
v -1.000010 0.072693 -0.100000
v -0.930000 0.072693 0.400000
v -1.000010 0.072693 0.400000
v -1.000010 0.639001 1.000010
v -0.930000 0.639001 0.930000
v 1.000010 0.639001 1.000010
v 0.930000 0.639001 0.930000
v -1.000010 0.639001 -1.000010
v -0.930000 0.639001 -0.930000
v 0.999990 0.639001 -0.930000
v 1.070000 0.639001 -1.000000
v 0.999990 0.639001 -1.000010
v 1.000010 0.639001 0.400010
v 0.930000 0.639001 0.330000
v 1.400000 0.639001 0.400010
v 1.400000 0.639001 0.330000
v 2.500000 0.639001 0.400010
v 2.500000 0.639001 0.330000
v 3.000010 0.639001 0.400010
v 2.930000 0.639001 0.330000
v 3.000010 0.639001 0.200010
v 2.930000 0.639001 0.130000
v 3.700010 0.639001 0.200010
v 3.630000 0.639001 0.130000
v 3.700010 0.639001 -0.499990
v 3.700000 0.639001 -0.570000
v 3.630000 0.639001 -0.499990
v 3.500000 0.639001 -0.570000
v 3.500000 0.639001 -0.499990
v 4.400010 0.639001 -0.499990
v 4.330000 0.639001 -0.570000
v 4.400010 0.639001 -1.500010
v 4.330000 0.639001 -1.430000
v 3.000000 0.639001 -1.500010
v 2.930000 0.639001 -1.430000
v 3.000010 0.639001 -1.430000
v 2.930000 0.639001 -0.430000
v 3.000010 0.639001 -0.500010
v 3.100000 0.639001 -0.430000
v 3.100000 0.639001 -0.500010
v 2.200010 0.639001 -1.500010
v 2.130000 0.639001 -1.430000
v 2.200010 0.639001 -1.599990
v 2.130000 0.639001 -1.670000
v 2.700010 0.639001 -1.599990
v 2.630000 0.639001 -1.670000
v 2.700010 0.639001 -2.100010
v 2.630000 0.639001 -2.030000
v 1.299990 0.639001 -2.100010
v 1.370000 0.639001 -2.030000
v 1.299990 0.639001 -1.599990
v 1.370000 0.639001 -1.670000
v 1.699990 0.639001 -1.599990
v 1.770000 0.639001 -1.670000
v 1.699990 0.639001 -1.500010
v 1.770000 0.639001 -1.430000
v 0.999990 0.639001 -1.500010
v 1.070000 0.639001 -1.430000
v 0.999990 0.639001 -0.100000
v 1.070000 0.639001 -0.100000
v -1.000010 0.639001 -0.100000
v -0.930000 0.639001 -0.100000
v -1.000010 0.639001 0.400000
v -0.930000 0.639001 0.400000
vn -0.0000 -1.0000 -0.0000
vn -0.0000 1.0000 -0.0000
vn -0.0000 -0.0000 1.0000
vn 1.0000 -0.0000 -0.0000
vn -1.0000 -0.0000 -0.0000
vn -0.0000 -0.0000 -1.0000
vt 0.000000 0.000000
s 0
f 7/1/1 8/1/1 9/1/1
f 22/1/1 23/1/1 24/1/1
f 31/1/1 32/1/1 33/1/1
f 68/1/2 69/1/2 70/1/2
f 83/1/2 84/1/2 85/1/2
f 92/1/2 93/1/2 94/1/2
f 5/1/1 59/1/1 6/1/1
f 3/1/1 2/1/1 1/1/1
f 56/1/1 8/1/1 7/1/1
f 5/1/1 9/1/1 8/1/1
f 3/1/1 11/1/1 4/1/1
f 12/1/1 11/1/1 10/1/1
f 14/1/1 13/1/1 12/1/1
f 16/1/1 15/1/1 14/1/1
f 16/1/1 19/1/1 17/1/1
f 20/1/1 19/1/1 18/1/1
f 20/1/1 24/1/1 21/1/1
f 22/1/1 26/1/1 23/1/1
f 27/1/1 24/1/1 23/1/1
f 29/1/1 28/1/1 27/1/1
f 29/1/1 33/1/1 30/1/1
f 34/1/1 32/1/1 31/1/1
f 34/1/1 37/1/1 35/1/1
f 32/1/1 39/1/1 33/1/1
f 40/1/1 39/1/1 38/1/1
f 42/1/1 41/1/1 40/1/1
f 42/1/1 45/1/1 43/1/1
f 46/1/1 45/1/1 44/1/1
f 48/1/1 47/1/1 46/1/1
f 48/1/1 51/1/1 49/1/1
f 52/1/1 51/1/1 50/1/1
f 54/1/1 53/1/1 52/1/1
f 9/1/1 54/1/1 7/1/1
f 1/1/1 61/1/1 60/1/1
f 119/1/2 67/1/2 66/1/2
f 64/1/2 63/1/2 62/1/2
f 68/1/2 118/1/2 69/1/2
f 70/1/2 67/1/2 68/1/2
f 71/1/2 65/1/2 64/1/2
f 71/1/2 74/1/2 72/1/2
f 75/1/2 74/1/2 73/1/2
f 75/1/2 78/1/2 76/1/2
f 79/1/2 78/1/2 77/1/2
f 79/1/2 82/1/2 80/1/2
f 83/1/2 82/1/2 81/1/2
f 86/1/2 85/1/2 84/1/2
f 83/1/2 89/1/2 84/1/2
f 90/1/2 89/1/2 88/1/2
f 92/1/2 91/1/2 90/1/2
f 93/1/2 96/1/2 94/1/2
f 97/1/2 96/1/2 95/1/2
f 99/1/2 93/1/2 92/1/2
f 101/1/2 100/1/2 99/1/2
f 101/1/2 104/1/2 102/1/2
f 105/1/2 104/1/2 103/1/2
f 107/1/2 106/1/2 105/1/2
f 107/1/2 110/1/2 108/1/2
f 111/1/2 110/1/2 109/1/2
f 113/1/2 112/1/2 111/1/2
f 113/1/2 116/1/2 114/1/2
f 116/1/2 70/1/2 69/1/2
f 121/1/2 63/1/2 122/1/2
f 118/1/3 57/1/3 56/1/3
f 98/1/4 37/1/4 36/1/4
f 87/1/5 26/1/5 25/1/5
f 120/1/3 59/1/3 58/1/3
f 60/1/6 121/1/6 122/1/6
f 2/1/3 64/1/3 62/1/3
f 65/1/6 1/1/6 63/1/6
f 31/1/4 96/1/4 34/1/4
f 95/1/5 32/1/5 35/1/5
f 8/1/5 117/1/5 68/1/5
f 118/1/4 7/1/4 69/1/4
f 34/1/6 98/1/6 36/1/6
f 97/1/3 35/1/3 37/1/3
f 9/1/6 66/1/6 70/1/6
f 67/1/3 8/1/3 68/1/3
f 33/1/6 99/1/6 92/1/6
f 100/1/3 32/1/3 93/1/3
f 4/1/4 71/1/4 64/1/4
f 72/1/5 3/1/5 65/1/5
f 39/1/4 101/1/4 99/1/4
f 102/1/5 38/1/5 100/1/5
f 11/1/3 73/1/3 71/1/3
f 74/1/6 10/1/6 72/1/6
f 41/1/3 103/1/3 101/1/3
f 104/1/6 40/1/6 102/1/6
f 13/1/3 75/1/3 73/1/3
f 76/1/6 12/1/6 74/1/6
f 43/1/4 105/1/4 103/1/4
f 106/1/5 42/1/5 104/1/5
f 15/1/3 77/1/3 75/1/3
f 78/1/6 14/1/6 76/1/6
f 45/1/6 107/1/6 105/1/6
f 108/1/3 44/1/3 106/1/3
f 17/1/4 79/1/4 77/1/4
f 80/1/5 16/1/5 78/1/5
f 47/1/5 109/1/5 107/1/5
f 110/1/4 46/1/4 108/1/4
f 19/1/3 81/1/3 79/1/3
f 82/1/6 18/1/6 80/1/6
f 49/1/3 111/1/3 109/1/3
f 112/1/6 48/1/6 110/1/6
f 21/1/4 83/1/4 81/1/4
f 85/1/5 20/1/5 82/1/5
f 51/1/5 113/1/5 111/1/5
f 114/1/4 50/1/4 112/1/4
f 22/1/3 87/1/3 25/1/3
f 86/1/6 23/1/6 26/1/6
f 53/1/6 115/1/6 113/1/6
f 116/1/3 52/1/3 114/1/3
f 24/1/3 88/1/3 83/1/3
f 89/1/6 23/1/6 84/1/6
f 9/1/5 115/1/5 55/1/5
f 116/1/4 7/1/4 54/1/4
f 28/1/4 90/1/4 88/1/4
f 91/1/5 27/1/5 89/1/5
f 6/1/5 119/1/5 66/1/5
f 120/1/4 5/1/4 67/1/4
f 61/1/5 62/1/5 121/1/5
f 63/1/4 60/1/4 122/1/4
f 30/1/6 92/1/6 90/1/6
f 94/1/3 29/1/3 91/1/3
f 5/1/1 58/1/1 59/1/1
f 3/1/1 4/1/1 2/1/1
f 56/1/1 57/1/1 8/1/1
f 5/1/1 6/1/1 9/1/1
f 3/1/1 10/1/1 11/1/1
f 12/1/1 13/1/1 11/1/1
f 14/1/1 15/1/1 13/1/1
f 16/1/1 17/1/1 15/1/1
f 16/1/1 18/1/1 19/1/1
f 20/1/1 21/1/1 19/1/1
f 20/1/1 22/1/1 24/1/1
f 22/1/1 25/1/1 26/1/1
f 27/1/1 28/1/1 24/1/1
f 29/1/1 30/1/1 28/1/1
f 29/1/1 31/1/1 33/1/1
f 34/1/1 35/1/1 32/1/1
f 34/1/1 36/1/1 37/1/1
f 32/1/1 38/1/1 39/1/1
f 40/1/1 41/1/1 39/1/1
f 42/1/1 43/1/1 41/1/1
f 42/1/1 44/1/1 45/1/1
f 46/1/1 47/1/1 45/1/1
f 48/1/1 49/1/1 47/1/1
f 48/1/1 50/1/1 51/1/1
f 52/1/1 53/1/1 51/1/1
f 54/1/1 55/1/1 53/1/1
f 9/1/1 55/1/1 54/1/1
f 1/1/1 2/1/1 61/1/1
f 119/1/2 120/1/2 67/1/2
f 64/1/2 65/1/2 63/1/2
f 68/1/2 117/1/2 118/1/2
f 70/1/2 66/1/2 67/1/2
f 71/1/2 72/1/2 65/1/2
f 71/1/2 73/1/2 74/1/2
f 75/1/2 76/1/2 74/1/2
f 75/1/2 77/1/2 78/1/2
f 79/1/2 80/1/2 78/1/2
f 79/1/2 81/1/2 82/1/2
f 83/1/2 85/1/2 82/1/2
f 86/1/2 87/1/2 85/1/2
f 83/1/2 88/1/2 89/1/2
f 90/1/2 91/1/2 89/1/2
f 92/1/2 94/1/2 91/1/2
f 93/1/2 95/1/2 96/1/2
f 97/1/2 98/1/2 96/1/2
f 99/1/2 100/1/2 93/1/2
f 101/1/2 102/1/2 100/1/2
f 101/1/2 103/1/2 104/1/2
f 105/1/2 106/1/2 104/1/2
f 107/1/2 108/1/2 106/1/2
f 107/1/2 109/1/2 110/1/2
f 111/1/2 112/1/2 110/1/2
f 113/1/2 114/1/2 112/1/2
f 113/1/2 115/1/2 116/1/2
f 116/1/2 115/1/2 70/1/2
f 121/1/2 62/1/2 63/1/2
f 118/1/3 117/1/3 57/1/3
f 98/1/4 97/1/4 37/1/4
f 87/1/5 86/1/5 26/1/5
f 120/1/3 119/1/3 59/1/3
f 60/1/6 61/1/6 121/1/6
f 2/1/3 4/1/3 64/1/3
f 65/1/6 3/1/6 1/1/6
f 31/1/4 94/1/4 96/1/4
f 95/1/5 93/1/5 32/1/5
f 8/1/5 57/1/5 117/1/5
f 118/1/4 56/1/4 7/1/4
f 34/1/6 96/1/6 98/1/6
f 97/1/3 95/1/3 35/1/3
f 9/1/6 6/1/6 66/1/6
f 67/1/3 5/1/3 8/1/3
f 33/1/6 39/1/6 99/1/6
f 100/1/3 38/1/3 32/1/3
f 4/1/4 11/1/4 71/1/4
f 72/1/5 10/1/5 3/1/5
f 39/1/4 41/1/4 101/1/4
f 102/1/5 40/1/5 38/1/5
f 11/1/3 13/1/3 73/1/3
f 74/1/6 12/1/6 10/1/6
f 41/1/3 43/1/3 103/1/3
f 104/1/6 42/1/6 40/1/6
f 13/1/3 15/1/3 75/1/3
f 76/1/6 14/1/6 12/1/6
f 43/1/4 45/1/4 105/1/4
f 106/1/5 44/1/5 42/1/5
f 15/1/3 17/1/3 77/1/3
f 78/1/6 16/1/6 14/1/6
f 45/1/6 47/1/6 107/1/6
f 108/1/3 46/1/3 44/1/3
f 17/1/4 19/1/4 79/1/4
f 80/1/5 18/1/5 16/1/5
f 47/1/5 49/1/5 109/1/5
f 110/1/4 48/1/4 46/1/4
f 19/1/3 21/1/3 81/1/3
f 82/1/6 20/1/6 18/1/6
f 49/1/3 51/1/3 111/1/3
f 112/1/6 50/1/6 48/1/6
f 21/1/4 24/1/4 83/1/4
f 85/1/5 22/1/5 20/1/5
f 51/1/5 53/1/5 113/1/5
f 114/1/4 52/1/4 50/1/4
f 22/1/3 85/1/3 87/1/3
f 86/1/6 84/1/6 23/1/6
f 53/1/6 55/1/6 115/1/6
f 116/1/3 54/1/3 52/1/3
f 24/1/3 28/1/3 88/1/3
f 89/1/6 27/1/6 23/1/6
f 9/1/5 70/1/5 115/1/5
f 116/1/4 69/1/4 7/1/4
f 28/1/4 30/1/4 90/1/4
f 91/1/5 29/1/5 27/1/5
f 6/1/5 59/1/5 119/1/5
f 120/1/4 58/1/4 5/1/4
f 61/1/5 2/1/5 62/1/5
f 63/1/4 1/1/4 60/1/4
f 30/1/6 33/1/6 92/1/6
f 94/1/3 31/1/3 29/1/3
o Plane.001
v -1.000000 0.008406 1.000000
v -1.000000 0.078416 1.000000
v 1.000000 0.008406 1.000000
v 1.000000 0.078416 1.000000
v -1.000000 0.008406 -1.000000
v -1.000000 0.078416 -1.000000
v 1.000000 0.008406 -1.000000
v 1.000000 0.078416 -1.000000
v 1.000000 0.008406 0.400000
v 1.000000 0.078416 0.400000
v 1.400000 0.008406 0.400000
v 1.400000 0.078416 0.400000
v 2.500000 0.008406 0.400000
v 2.500000 0.078416 0.400000
v 3.000000 0.008406 0.400000
v 3.000000 0.078416 0.400000
v 3.000000 0.008406 0.200000
v 3.000000 0.078416 0.200000
v 3.700000 0.008406 0.200000
v 3.700000 0.078416 0.200000
v 3.700000 0.008406 -0.500000
v 3.700000 0.078416 -0.500000
v 3.500000 0.078416 -0.500000
v 3.500000 0.008406 -0.500000
v 4.400000 0.008406 -0.500000
v 4.400000 0.078416 -0.500000
v 4.400000 0.008406 -1.500000
v 4.400000 0.078416 -1.500000
v 3.000000 0.008406 -1.500000
v 3.000000 0.078416 -1.500000
v 3.000000 0.008406 -0.500000
v 3.000000 0.078416 -0.500000
v 3.100000 0.008406 -0.500000
v 3.100000 0.078416 -0.500000
v 2.200000 0.008406 -1.500000
v 2.200000 0.078416 -1.500000
v 2.200000 0.008406 -1.600000
v 2.200000 0.078416 -1.600000
v 2.700000 0.008406 -1.600000
v 2.700000 0.078416 -1.600000
v 2.700000 0.008406 -2.100000
v 2.700000 0.078416 -2.100000
v 1.300000 0.008406 -2.100000
v 1.300000 0.078416 -2.100000
v 1.300000 0.008406 -1.600000
v 1.300000 0.078416 -1.600000
v 1.700000 0.008406 -1.600000
v 1.700000 0.078416 -1.600000
v 1.700000 0.008406 -1.500000
v 1.700000 0.078416 -1.500000
v 1.000000 0.008406 -1.500000
v 1.000000 0.078416 -1.500000
v 1.000000 0.008406 -0.100000
v 1.000000 0.078416 -0.100000
v -1.000000 0.008406 -0.100000
v -1.000000 0.078416 -0.100000
v -1.000000 0.008406 0.400000
v -1.000000 0.078416 0.400000
vn -1.0000 -0.0000 -0.0000
vn -0.0000 -0.0000 1.0000
vn -0.0000 -0.0000 -1.0000
vn 1.0000 -0.0000 -0.0000
vn -0.0000 -1.0000 -0.0000
vn -0.0000 1.0000 -0.0000
vt 0.000000 0.000000
s 0
f 177/2/7 128/2/7 127/2/7
f 125/2/8 124/2/8 123/2/8
f 127/2/9 130/2/9 129/2/9
f 131/2/10 126/2/10 125/2/10
f 133/2/8 132/2/8 131/2/8
f 135/2/8 134/2/8 133/2/8
f 137/2/8 136/2/8 135/2/8
f 139/2/10 138/2/10 137/2/10
f 141/2/8 140/2/8 139/2/8
f 143/2/10 142/2/10 141/2/10
f 147/2/8 144/2/8 143/2/8
f 149/2/10 148/2/10 147/2/10
f 151/2/9 150/2/9 149/2/9
f 157/2/9 152/2/9 151/2/9
f 159/2/10 158/2/10 157/2/10
f 161/2/8 160/2/8 159/2/8
f 163/2/10 162/2/10 161/2/10
f 165/2/9 164/2/9 163/2/9
f 167/2/7 166/2/7 165/2/7
f 169/2/8 168/2/8 167/2/8
f 171/2/7 170/2/7 169/2/7
f 173/2/9 172/2/9 171/2/9
f 174/2/7 129/2/7 130/2/7
f 123/2/7 180/2/7 179/2/7
f 179/2/7 178/2/7 177/2/7
f 175/2/11 131/2/11 179/2/11
f 178/2/12 132/2/12 176/2/12
f 175/2/11 153/2/11 135/2/11
f 154/2/12 158/2/12 130/2/12
f 139/2/11 155/2/11 146/2/11
f 145/2/12 156/2/12 140/2/12
f 146/2/11 155/2/11 151/2/11
f 152/2/12 145/2/12 144/2/12
f 157/2/11 169/2/11 159/2/11
f 170/2/12 158/2/12 160/2/12
f 159/2/11 167/2/11 163/2/11
f 164/2/12 168/2/12 160/2/12
f 177/2/7 178/2/7 128/2/7
f 125/2/8 126/2/8 124/2/8
f 127/2/9 128/2/9 130/2/9
f 131/2/10 132/2/10 126/2/10
f 133/2/8 134/2/8 132/2/8
f 135/2/8 136/2/8 134/2/8
f 137/2/8 138/2/8 136/2/8
f 139/2/10 140/2/10 138/2/10
f 141/2/8 142/2/8 140/2/8
f 143/2/10 144/2/10 142/2/10
f 147/2/8 148/2/8 144/2/8
f 149/2/10 150/2/10 148/2/10
f 151/2/9 152/2/9 150/2/9
f 157/2/9 158/2/9 152/2/9
f 159/2/10 160/2/10 158/2/10
f 161/2/8 162/2/8 160/2/8
f 163/2/10 164/2/10 162/2/10
f 165/2/9 166/2/9 164/2/9
f 167/2/7 168/2/7 166/2/7
f 169/2/8 170/2/8 168/2/8
f 171/2/7 172/2/7 170/2/7
f 173/2/9 174/2/9 172/2/9
f 174/2/7 173/2/7 129/2/7
f 123/2/7 124/2/7 180/2/7
f 179/2/7 180/2/7 178/2/7
f 177/2/11 127/2/11 129/2/11
f 177/2/11 129/2/11 175/2/11
f 125/2/11 123/2/11 179/2/11
f 179/2/11 177/2/11 175/2/11
f 131/2/11 125/2/11 179/2/11
f 180/2/12 124/2/12 126/2/12
f 180/2/12 126/2/12 132/2/12
f 130/2/12 128/2/12 178/2/12
f 178/2/12 180/2/12 132/2/12
f 176/2/12 130/2/12 178/2/12
f 129/2/11 173/2/11 171/2/11
f 171/2/12 157/2/12 151/2/12
f 171/2/11 151/2/11 153/2/11
f 175/2/11 129/2/11 171/2/11
f 133/2/11 131/2/11 175/2/11
f 139/2/11 137/2/11 135/2/11
f 135/2/11 133/2/11 175/2/11
f 175/2/11 171/2/11 153/2/11
f 153/2/11 139/2/11 135/2/11
f 176/2/12 132/2/12 134/2/12
f 136/2/12 138/2/12 140/2/12
f 176/2/12 134/2/12 136/2/12
f 172/2/12 174/2/12 130/2/12
f 130/2/12 176/2/12 136/2/12
f 136/2/12 140/2/12 154/2/12
f 154/2/12 152/2/12 158/2/12
f 158/2/12 172/2/12 130/2/12
f 130/2/12 136/2/12 154/2/12
f 143/2/11 141/2/11 139/2/11
f 139/2/11 153/2/11 155/2/11
f 146/2/11 143/2/11 139/2/11
f 140/2/12 142/2/12 144/2/12
f 140/2/12 144/2/12 145/2/12
f 156/2/12 154/2/12 140/2/12
f 151/2/11 149/2/11 147/2/11
f 151/2/11 147/2/11 143/2/11
f 155/2/11 153/2/11 151/2/11
f 151/2/11 143/2/11 146/2/11
f 148/2/12 150/2/12 152/2/12
f 152/2/12 154/2/12 156/2/12
f 152/2/12 156/2/12 145/2/12
f 144/2/12 148/2/12 152/2/12
f 157/2/11 171/2/11 169/2/11
f 170/2/12 172/2/12 158/2/12
f 163/2/11 161/2/11 159/2/11
f 159/2/12 169/2/12 167/2/12
f 167/2/11 165/2/11 163/2/11
f 160/2/12 162/2/12 164/2/12
f 164/2/12 166/2/12 168/2/12
f 168/2/11 170/2/11 160/2/11
o Plane.002
v -1.000000 0.639001 1.000000
v -1.000000 0.709011 1.000000
v 1.000000 0.639001 1.000000
v 1.000000 0.709011 1.000000
v -1.000000 0.639001 -1.000000
v -1.000000 0.709011 -1.000000
v 1.000000 0.639001 -1.000000
v 1.000000 0.709011 -1.000000
v 1.000000 0.639001 0.400000
v 1.000000 0.709011 0.400000
v 1.400000 0.639001 0.400000
v 1.400000 0.709011 0.400000
v 2.500000 0.639001 0.400000
v 2.500000 0.709011 0.400000
v 3.000000 0.639001 0.400000
v 3.000000 0.709011 0.400000
v 3.000000 0.639001 0.200000
v 3.000000 0.709011 0.200000
v 3.700000 0.639001 0.200000
v 3.700000 0.709011 0.200000
v 3.700000 0.639001 -0.500000
v 3.700000 0.709011 -0.500000
v 3.500000 0.709011 -0.500000
v 3.500000 0.639001 -0.500000
v 4.400000 0.639001 -0.500000
v 4.400000 0.709011 -0.500000
v 4.400000 0.639001 -1.500000
v 4.400000 0.709011 -1.500000
v 3.000000 0.639001 -1.500000
v 3.000000 0.709011 -1.500000
v 3.000000 0.639001 -0.500000
v 3.000000 0.709011 -0.500000
v 3.100000 0.639001 -0.500000
v 3.100000 0.709011 -0.500000
v 2.200000 0.639001 -1.500000
v 2.200000 0.709011 -1.500000
v 2.200000 0.639001 -1.600000
v 2.200000 0.709011 -1.600000
v 2.700000 0.639001 -1.600000
v 2.700000 0.709011 -1.600000
v 2.700000 0.639001 -2.100000
v 2.700000 0.709011 -2.100000
v 1.300000 0.639001 -2.100000
v 1.300000 0.709011 -2.100000
v 1.300000 0.639001 -1.600000
v 1.300000 0.709011 -1.600000
v 1.700000 0.639001 -1.600000
v 1.700000 0.709011 -1.600000
v 1.700000 0.639001 -1.500000
v 1.700000 0.709011 -1.500000
v 1.000000 0.639001 -1.500000
v 1.000000 0.709011 -1.500000
v 1.000000 0.639001 -0.100000
v 1.000000 0.709011 -0.100000
v -1.000000 0.639001 -0.100000
v -1.000000 0.709011 -0.100000
v -1.000000 0.639001 0.400000
v -1.000000 0.709011 0.400000
vn -1.0000 -0.0000 -0.0000
vn -0.0000 -0.0000 1.0000
vn -0.0000 -0.0000 -1.0000
vn 1.0000 -0.0000 -0.0000
vn -0.0000 -1.0000 -0.0000
vn -0.0000 1.0000 -0.0000
vt 0.000000 0.000000
s 0
f 235/3/13 186/3/13 185/3/13
f 183/3/14 182/3/14 181/3/14
f 185/3/15 188/3/15 187/3/15
f 189/3/16 184/3/16 183/3/16
f 191/3/14 190/3/14 189/3/14
f 193/3/14 192/3/14 191/3/14
f 195/3/14 194/3/14 193/3/14
f 197/3/16 196/3/16 195/3/16
f 199/3/14 198/3/14 197/3/14
f 201/3/16 200/3/16 199/3/16
f 205/3/14 202/3/14 201/3/14
f 207/3/16 206/3/16 205/3/16
f 209/3/15 208/3/15 207/3/15
f 215/3/15 210/3/15 209/3/15
f 217/3/16 216/3/16 215/3/16
f 219/3/14 218/3/14 217/3/14
f 221/3/16 220/3/16 219/3/16
f 223/3/15 222/3/15 221/3/15
f 225/3/13 224/3/13 223/3/13
f 227/3/14 226/3/14 225/3/14
f 229/3/13 228/3/13 227/3/13
f 231/3/15 230/3/15 229/3/15
f 232/3/13 187/3/13 188/3/13
f 181/3/13 238/3/13 237/3/13
f 237/3/13 236/3/13 235/3/13
f 233/3/17 189/3/17 237/3/17
f 236/3/18 190/3/18 234/3/18
f 233/3/17 211/3/17 193/3/17
f 212/3/18 216/3/18 188/3/18
f 197/3/17 213/3/17 204/3/17
f 203/3/18 214/3/18 198/3/18
f 204/3/17 213/3/17 209/3/17
f 210/3/18 203/3/18 202/3/18
f 215/3/17 227/3/17 217/3/17
f 228/3/18 216/3/18 218/3/18
f 217/3/17 225/3/17 221/3/17
f 222/3/18 226/3/18 218/3/18
f 235/3/13 236/3/13 186/3/13
f 183/3/14 184/3/14 182/3/14
f 185/3/15 186/3/15 188/3/15
f 189/3/16 190/3/16 184/3/16
f 191/3/14 192/3/14 190/3/14
f 193/3/14 194/3/14 192/3/14
f 195/3/14 196/3/14 194/3/14
f 197/3/16 198/3/16 196/3/16
f 199/3/14 200/3/14 198/3/14
f 201/3/16 202/3/16 200/3/16
f 205/3/14 206/3/14 202/3/14
f 207/3/16 208/3/16 206/3/16
f 209/3/15 210/3/15 208/3/15
f 215/3/15 216/3/15 210/3/15
f 217/3/16 218/3/16 216/3/16
f 219/3/14 220/3/14 218/3/14
f 221/3/16 222/3/16 220/3/16
f 223/3/15 224/3/15 222/3/15
f 225/3/13 226/3/13 224/3/13
f 227/3/14 228/3/14 226/3/14
f 229/3/13 230/3/13 228/3/13
f 231/3/15 232/3/15 230/3/15
f 232/3/13 231/3/13 187/3/13
f 181/3/13 182/3/13 238/3/13
f 237/3/13 238/3/13 236/3/13
f 235/3/17 185/3/17 187/3/17
f 235/3/17 187/3/17 233/3/17
f 183/3/17 181/3/17 237/3/17
f 237/3/17 235/3/17 233/3/17
f 189/3/17 183/3/17 237/3/17
f 238/3/18 182/3/18 184/3/18
f 238/3/18 184/3/18 190/3/18
f 188/3/18 186/3/18 236/3/18
f 236/3/18 238/3/18 190/3/18
f 234/3/18 188/3/18 236/3/18
f 187/3/17 231/3/17 229/3/17
f 229/3/18 215/3/18 209/3/18
f 229/3/17 209/3/17 211/3/17
f 233/3/17 187/3/17 229/3/17
f 191/3/17 189/3/17 233/3/17
f 197/3/17 195/3/17 193/3/17
f 193/3/17 191/3/17 233/3/17
f 233/3/17 229/3/17 211/3/17
f 211/3/17 197/3/17 193/3/17
f 234/3/18 190/3/18 192/3/18
f 194/3/18 196/3/18 198/3/18
f 234/3/18 192/3/18 194/3/18
f 230/3/18 232/3/18 188/3/18
f 188/3/18 234/3/18 194/3/18
f 194/3/18 198/3/18 212/3/18
f 212/3/18 210/3/18 216/3/18
f 216/3/18 230/3/18 188/3/18
f 188/3/18 194/3/18 212/3/18
f 201/3/17 199/3/17 197/3/17
f 197/3/17 211/3/17 213/3/17
f 204/3/17 201/3/17 197/3/17
f 198/3/18 200/3/18 202/3/18
f 198/3/18 202/3/18 203/3/18
f 214/3/18 212/3/18 198/3/18
f 209/3/17 207/3/17 205/3/17
f 209/3/17 205/3/17 201/3/17
f 213/3/17 211/3/17 209/3/17
f 209/3/17 201/3/17 204/3/17
f 206/3/18 208/3/18 210/3/18
f 210/3/18 212/3/18 214/3/18
f 210/3/18 214/3/18 203/3/18
f 202/3/18 206/3/18 210/3/18
f 215/3/17 229/3/17 227/3/17
f 228/3/18 230/3/18 216/3/18
f 221/3/17 219/3/17 217/3/17
f 217/3/18 227/3/18 225/3/18
f 225/3/17 223/3/17 221/3/17
f 218/3/18 220/3/18 222/3/18
f 222/3/18 224/3/18 226/3/18
f 226/3/17 228/3/17 218/3/17
