# Blender 3.6.1
# www.blender.org
mtllib rooms.mtl
o Plane
v -1.000000 0.000000 0.999990
v -1.000000 0.000000 1.200000
v 2.999990 0.000000 0.999990
v 3.200000 0.000000 1.200000
v 2.999990 0.000000 -2.000010
v 3.200000 0.000000 -1.800000
v 4.000010 0.000000 -2.000010
v 3.800000 0.000000 -1.800000
v 4.000010 0.000000 2.999990
v 3.800000 0.000000 3.200000
v 7.999990 0.000000 2.999990
v 8.200000 0.000000 3.200000
v 7.999990 0.000000 -5.099990
v 8.200000 0.000000 -5.300000
v 4.000010 0.000000 -5.099990
v 3.800000 0.000000 -5.300000
v 4.000010 0.000000 -2.999990
v 3.800000 0.000000 -3.200000
v 2.999990 0.000000 -2.999990
v 3.200000 0.000000 -3.200000
v 2.999990 0.000000 -7.899991
v 3.200000 0.000000 -8.100000
v 0.000010 0.000000 -7.899991
v -0.200000 0.000000 -8.100000
v 0.000010 0.000000 -5.099990
v -0.200000 0.000000 -5.300000
v -1.999990 0.000000 -5.099990
v -2.200000 0.000000 -5.300000
v -1.999990 0.000000 0.999990
v -2.200000 0.000000 1.199999
v -1.000000 3.000000 1.200000
v -1.000000 3.000000 0.999990
v 3.200000 3.000000 1.200000
v 2.999990 3.000000 0.999990
v 3.200000 3.000000 -1.800000
v 2.999990 3.000000 -2.000010
v 3.800000 3.000000 -1.800000
v 4.000010 3.000000 -2.000010
v 3.800000 3.000000 3.200000
v 4.000010 3.000000 2.999990
v 8.200000 3.000000 3.200000
v 7.999990 3.000000 2.999990
v 8.200000 3.000000 -5.300000
v 7.999990 3.000000 -5.099990
v 3.800000 3.000000 -5.300000
v 4.000010 3.000000 -5.099990
v 3.800000 3.000000 -3.200000
v 4.000010 3.000000 -2.999990
v 3.200000 3.000000 -3.200000
v 2.999990 3.000000 -2.999990
v 3.200000 3.000000 -8.100000
v 2.999990 3.000000 -7.899991
v -0.200000 3.000000 -8.100000
v 0.000010 3.000000 -7.899991
v -0.200000 3.000000 -5.300000
v 0.000010 3.000000 -5.099990
v -2.200000 3.000000 -5.300000
v -1.999990 3.000000 -5.099990
v -2.200000 3.000000 1.199999
v -1.999990 3.000000 0.999990
vn -0.0000 -1.0000 -0.0000
vn -0.0000 1.0000 -0.0000
vn -0.0000 -0.0000 1.0000
vn -0.0000 -0.0000 -1.0000
vn -1.0000 -0.0000 -0.0000
vn 1.0000 -0.0000 -0.0000
vt 0.000000 0.000000
s 0
f 3/1/1 2/1/1 1/1/1
f 3/1/1 6/1/1 4/1/1
f 7/1/1 6/1/1 5/1/1
f 9/1/1 8/1/1 7/1/1
f 11/1/1 10/1/1 9/1/1
f 13/1/1 12/1/1 11/1/1
f 15/1/1 14/1/1 13/1/1
f 15/1/1 18/1/1 16/1/1
f 19/1/1 18/1/1 17/1/1
f 21/1/1 20/1/1 19/1/1
f 23/1/1 22/1/1 21/1/1
f 23/1/1 26/1/1 24/1/1
f 27/1/1 26/1/1 25/1/1
f 29/1/1 28/1/1 27/1/1
f 2/1/1 29/1/1 1/1/1
f 31/1/2 34/1/2 32/1/2
f 35/1/2 34/1/2 33/1/2
f 37/1/2 36/1/2 35/1/2
f 37/1/2 40/1/2 38/1/2
f 41/1/2 40/1/2 39/1/2
f 43/1/2 42/1/2 41/1/2
f 45/1/2 44/1/2 43/1/2
f 47/1/2 46/1/2 45/1/2
f 49/1/2 48/1/2 47/1/2
f 49/1/2 52/1/2 50/1/2
f 53/1/2 52/1/2 51/1/2
f 55/1/2 54/1/2 53/1/2
f 55/1/2 58/1/2 56/1/2
f 59/1/2 58/1/2 57/1/2
f 60/1/2 31/1/2 32/1/2
f 17/1/3 50/1/3 19/1/3
f 49/1/4 18/1/4 20/1/4
f 3/1/5 36/1/5 5/1/5
f 35/1/6 4/1/6 6/1/6
f 19/1/5 52/1/5 21/1/5
f 51/1/6 20/1/6 22/1/6
f 5/1/4 38/1/4 7/1/4
f 37/1/3 6/1/3 8/1/3
f 21/1/3 54/1/3 23/1/3
f 53/1/4 22/1/4 24/1/4
f 7/1/6 40/1/6 9/1/6
f 39/1/5 8/1/5 10/1/5
f 23/1/6 56/1/6 25/1/6
f 55/1/5 24/1/5 26/1/5
f 9/1/4 42/1/4 11/1/4
f 41/1/3 10/1/3 12/1/3
f 25/1/3 58/1/3 27/1/3
f 57/1/4 26/1/4 28/1/4
f 11/1/5 44/1/5 13/1/5
f 43/1/6 12/1/6 14/1/6
f 27/1/6 60/1/6 29/1/6
f 59/1/5 28/1/5 30/1/5
f 13/1/3 46/1/3 15/1/3
f 45/1/4 14/1/4 16/1/4
f 1/1/4 60/1/4 32/1/4
f 59/1/3 2/1/3 31/1/3
f 15/1/6 48/1/6 17/1/6
f 47/1/5 16/1/5 18/1/5
f 1/1/4 34/1/4 3/1/4
f 33/1/3 2/1/3 4/1/3
f 3/1/1 4/1/1 2/1/1
f 3/1/1 5/1/1 6/1/1
f 7/1/1 8/1/1 6/1/1
f 9/1/1 10/1/1 8/1/1
f 11/1/1 12/1/1 10/1/1
f 13/1/1 14/1/1 12/1/1
f 15/1/1 16/1/1 14/1/1
f 15/1/1 17/1/1 18/1/1
f 19/1/1 20/1/1 18/1/1
f 21/1/1 22/1/1 20/1/1
f 23/1/1 24/1/1 22/1/1
f 23/1/1 25/1/1 26/1/1
f 27/1/1 28/1/1 26/1/1
f 29/1/1 30/1/1 28/1/1
f 2/1/1 30/1/1 29/1/1
f 31/1/2 33/1/2 34/1/2
f 35/1/2 36/1/2 34/1/2
f 37/1/2 38/1/2 36/1/2
f 37/1/2 39/1/2 40/1/2
f 41/1/2 42/1/2 40/1/2
f 43/1/2 44/1/2 42/1/2
f 45/1/2 46/1/2 44/1/2
f 47/1/2 48/1/2 46/1/2
f 49/1/2 50/1/2 48/1/2
f 49/1/2 51/1/2 52/1/2
f 53/1/2 54/1/2 52/1/2
f 55/1/2 56/1/2 54/1/2
f 55/1/2 57/1/2 58/1/2
f 59/1/2 60/1/2 58/1/2
f 60/1/2 59/1/2 31/1/2
f 17/1/3 48/1/3 50/1/3
f 49/1/4 47/1/4 18/1/4
f 3/1/5 34/1/5 36/1/5
f 35/1/6 33/1/6 4/1/6
f 19/1/5 50/1/5 52/1/5
f 51/1/6 49/1/6 20/1/6
f 5/1/4 36/1/4 38/1/4
f 37/1/3 35/1/3 6/1/3
f 21/1/3 52/1/3 54/1/3
f 53/1/4 51/1/4 22/1/4
f 7/1/6 38/1/6 40/1/6
f 39/1/5 37/1/5 8/1/5
f 23/1/6 54/1/6 56/1/6
f 55/1/5 53/1/5 24/1/5
f 9/1/4 40/1/4 42/1/4
f 41/1/3 39/1/3 10/1/3
f 25/1/3 56/1/3 58/1/3
f 57/1/4 55/1/4 26/1/4
f 11/1/5 42/1/5 44/1/5
f 43/1/6 41/1/6 12/1/6
f 27/1/6 58/1/6 60/1/6
f 59/1/5 57/1/5 28/1/5
f 13/1/3 44/1/3 46/1/3
f 45/1/4 43/1/4 14/1/4
f 1/1/4 29/1/4 60/1/4
f 59/1/3 30/1/3 2/1/3
f 15/1/6 46/1/6 48/1/6
f 47/1/5 45/1/5 16/1/5
f 1/1/4 32/1/4 34/1/4
f 33/1/3 31/1/3 2/1/3
