# Blender 3.6.1
# www.blender.org
mtllib vector.mtl
o Cone
v 1.000000 0.400000 -0.000000
v 1.000000 0.380423 -0.123607
v 1.000000 0.323607 -0.235114
v 1.000000 0.235114 -0.323607
v 1.000000 0.123607 -0.380423
v 1.000000 -0.000000 -0.400000
v 1.000000 -0.123607 -0.380423
v 1.000000 -0.235114 -0.323607
v 1.000000 -0.323607 -0.235114
v 1.000000 -0.380423 -0.123607
v 1.000000 -0.400000 -0.000000
v 1.000000 -0.380423 0.123607
v 1.000000 -0.323607 0.235114
v 1.000000 -0.235114 0.323607
v 1.000000 -0.123607 0.380423
v 1.000000 0.000000 0.400000
v 1.000000 0.123607 0.380423
v 1.000000 0.235114 0.323607
v 1.000000 0.323607 0.235114
v 1.000000 0.380423 0.123607
v 1.500000 -0.000000 -0.000000
vn 0.6200 0.7750 -0.1227
vn 0.6200 0.6991 -0.3562
vn 0.6200 0.5548 -0.5548
vn 0.6200 0.3562 -0.6991
vn 0.6200 0.1227 -0.7750
vn 0.6200 -0.1227 -0.7750
vn 0.6200 -0.3562 -0.6991
vn 0.6200 -0.5548 -0.5548
vn 0.6200 -0.6991 -0.3562
vn 0.6200 -0.7750 -0.1227
vn 0.6200 -0.7750 0.1227
vn 0.6200 -0.6991 0.3562
vn 0.6200 -0.5548 0.5548
vn 0.6200 -0.3562 0.6991
vn 0.6200 -0.1227 0.7750
vn 0.6200 0.1227 0.7750
vn 0.6200 0.3562 0.6991
vn 0.6200 0.5548 0.5548
vn -1.0000 -0.0000 -0.0000
vn 0.6200 0.6991 0.3562
vn 0.6200 0.7750 0.1227
vt 0.250000 0.490000
vt 0.250000 0.250000
vt 0.324164 0.478254
vt 0.391068 0.444164
vt 0.444164 0.391068
vt 0.478254 0.324164
vt 0.490000 0.250000
vt 0.478254 0.175836
vt 0.444164 0.108932
vt 0.391068 0.055836
vt 0.324164 0.021746
vt 0.250000 0.010000
vt 0.175836 0.021746
vt 0.108932 0.055836
vt 0.055836 0.108932
vt 0.021746 0.175836
vt 0.010000 0.250000
vt 0.021746 0.324164
vt 0.055836 0.391068
vt 0.108932 0.444164
vt 0.944164 0.108932
vt 0.510000 0.250000
vt 0.675836 0.478254
vt 0.175836 0.478254
vt 0.750000 0.490000
vt 0.824164 0.478254
vt 0.891068 0.444164
vt 0.944164 0.391068
vt 0.978254 0.324164
vt 0.990000 0.250000
vt 0.978254 0.175836
vt 0.891068 0.055836
vt 0.824164 0.021746
vt 0.750000 0.010000
vt 0.675836 0.021746
vt 0.608932 0.055836
vt 0.555836 0.108932
vt 0.521746 0.175836
vt 0.521746 0.324164
vt 0.555836 0.391068
vt 0.608932 0.444164
s 0
f 1/1/1 21/2/1 2/3/1
f 2/3/2 21/2/2 3/4/2
f 3/4/3 21/2/3 4/5/3
f 4/5/4 21/2/4 5/6/4
f 5/6/5 21/2/5 6/7/5
f 6/7/6 21/2/6 7/8/6
f 7/8/7 21/2/7 8/9/7
f 8/9/8 21/2/8 9/10/8
f 9/10/9 21/2/9 10/11/9
f 10/11/10 21/2/10 11/12/10
f 11/12/11 21/2/11 12/13/11
f 12/13/12 21/2/12 13/14/12
f 13/14/13 21/2/13 14/15/13
f 14/15/14 21/2/14 15/16/14
f 15/16/15 21/2/15 16/17/15
f 16/17/16 21/2/16 17/18/16
f 17/18/17 21/2/17 18/19/17
f 18/19/18 21/2/18 19/20/18
f 8/21/19 16/22/19 20/23/19
f 19/20/20 21/2/20 20/24/20
f 20/24/21 21/2/21 1/1/21
f 20/23/19 1/25/19 2/26/19
f 2/26/19 3/27/19 4/28/19
f 4/28/19 5/29/19 6/30/19
f 6/30/19 7/31/19 8/21/19
f 8/21/19 9/32/19 10/33/19
f 10/33/19 11/34/19 12/35/19
f 12/35/19 13/36/19 14/37/19
f 14/37/19 15/38/19 16/22/19
f 16/22/19 17/39/19 18/40/19
f 18/40/19 19/41/19 20/23/19
f 20/23/19 2/26/19 4/28/19
f 4/28/19 6/30/19 8/21/19
f 8/21/19 10/33/19 12/35/19
f 12/35/19 14/37/19 16/22/19
f 16/22/19 18/40/19 20/23/19
f 20/23/19 4/28/19 8/21/19
f 8/21/19 12/35/19 16/22/19
o Cylinder
v -0.000000 0.250000 -0.000000
v 1.000000 0.250000 -0.000000
v -0.000000 0.237764 -0.077254
v 1.000000 0.237764 -0.077254
v -0.000000 0.202254 -0.146946
v 1.000000 0.202254 -0.146946
v -0.000000 0.146946 -0.202254
v 1.000000 0.146946 -0.202254
v -0.000000 0.077254 -0.237764
v 1.000000 0.077254 -0.237764
v -0.000000 -0.000000 -0.250000
v 1.000000 -0.000000 -0.250000
v -0.000000 -0.077254 -0.237764
v 1.000000 -0.077254 -0.237764
v -0.000000 -0.146946 -0.202254
v 1.000000 -0.146946 -0.202254
v -0.000000 -0.202254 -0.146946
v 1.000000 -0.202254 -0.146946
v -0.000000 -0.237764 -0.077254
v 1.000000 -0.237764 -0.077254
v 0.000000 -0.250000 0.000000
v 1.000000 -0.250000 -0.000000
v 0.000000 -0.237764 0.077254
v 1.000000 -0.237764 0.077254
v 0.000000 -0.202254 0.146946
v 1.000000 -0.202254 0.146946
v 0.000000 -0.146946 0.202254
v 1.000000 -0.146946 0.202254
v 0.000000 -0.077254 0.237764
v 1.000000 -0.077254 0.237764
v 0.000000 0.000000 0.250000
v 1.000000 0.000000 0.250000
v 0.000000 0.077254 0.237764
v 1.000000 0.077254 0.237764
v 0.000000 0.146946 0.202254
v 1.000000 0.146946 0.202254
v 0.000000 0.202254 0.146946
v 1.000000 0.202254 0.146946
v 0.000000 0.237764 0.077254
v 1.000000 0.237764 0.077254
vn -0.0000 1.0000 -0.0000
vn -0.0000 0.9511 -0.3090
vn -0.0000 0.8090 -0.5878
vn -0.0000 0.5878 -0.8090
vn -0.0000 0.3090 -0.9511
vn -0.0000 -0.0000 -1.0000
vn -0.0000 -0.3090 -0.9511
vn -0.0000 -0.5878 -0.8090
vn -0.0000 -0.8090 -0.5878
vn -0.0000 -0.9511 -0.3090
vn -0.0000 -1.0000 -0.0000
vn -0.0000 -0.9511 0.3090
vn -0.0000 -0.8090 0.5878
vn -0.0000 -0.5878 0.8090
vn -0.0000 -0.3090 0.9511
vn -0.0000 -0.0000 1.0000
vn -0.0000 0.3090 0.9511
vn -0.0000 0.5878 0.8090
vn -0.0000 0.8090 0.5878
vn 1.0000 -0.0000 -0.0000
vn -0.0000 0.9511 0.3090
vn -1.0000 -0.0000 -0.0000
vt 1.000000 1.000000
vt 0.950000 0.500000
vt 1.000000 0.500000
vt 0.950000 1.000000
vt 0.900000 0.500000
vt 0.900000 1.000000
vt 0.850000 0.500000
vt 0.850000 1.000000
vt 0.800000 0.500000
vt 0.800000 1.000000
vt 0.750000 0.500000
vt 0.750000 1.000000
vt 0.700000 0.500000
vt 0.700000 1.000000
vt 0.650000 0.500000
vt 0.650000 1.000000
vt 0.600000 0.500000
vt 0.600000 1.000000
vt 0.550000 0.500000
vt 0.550000 1.000000
vt 0.500000 0.500000
vt 0.500000 1.000000
vt 0.450000 0.500000
vt 0.450000 1.000000
vt 0.400000 0.500000
vt 0.400000 1.000000
vt 0.350000 0.500000
vt 0.350000 1.000000
vt 0.300000 0.500000
vt 0.300000 1.000000
vt 0.250000 0.500000
vt 0.250000 1.000000
vt 0.200000 0.500000
vt 0.200000 1.000000
vt 0.150000 0.500000
vt 0.150000 1.000000
vt 0.100000 0.500000
vt 0.021746 0.175836
vt 0.478254 0.175836
vt 0.391068 0.444164
vt 0.100000 1.000000
vt 0.050000 0.500000
vt 0.050000 1.000000
vt -0.000000 0.500000
vt 0.944164 0.108932
vt 0.510000 0.250000
vt 0.675836 0.478254
vt 0.324164 0.478254
vt 0.250000 0.490000
vt 0.175836 0.478254
vt 0.108932 0.444164
vt 0.055836 0.391068
vt 0.021746 0.324164
vt 0.010000 0.250000
vt 0.055836 0.108932
vt 0.108932 0.055836
vt 0.175836 0.021746
vt 0.250000 0.010000
vt 0.324164 0.021746
vt 0.391068 0.055836
vt 0.444164 0.108932
vt 0.490000 0.250000
vt 0.478254 0.324164
vt 0.444164 0.391068
vt -0.000000 1.000000
vt 0.750000 0.490000
vt 0.824164 0.478254
vt 0.891068 0.444164
vt 0.944164 0.391068
vt 0.978254 0.324164
vt 0.990000 0.250000
vt 0.978254 0.175836
vt 0.891068 0.055836
vt 0.824164 0.021746
vt 0.750000 0.010000
vt 0.675836 0.021746
vt 0.608932 0.055836
vt 0.555836 0.108932
vt 0.521746 0.175836
vt 0.521746 0.324164
vt 0.555836 0.391068
vt 0.608932 0.444164
s 1
f 23/42/22 24/43/23 22/44/22
f 25/45/23 26/46/24 24/43/23
f 27/47/24 28/48/25 26/46/24
f 29/49/25 30/50/26 28/48/25
f 31/51/26 32/52/27 30/50/26
f 33/53/27 34/54/28 32/52/27
f 35/55/28 36/56/29 34/54/28
f 37/57/29 38/58/30 36/56/29
f 39/59/30 40/60/31 38/58/30
f 41/61/31 42/62/32 40/60/31
f 43/63/32 44/64/33 42/62/32
f 45/65/33 46/66/34 44/64/33
f 47/67/34 48/68/35 46/66/34
f 49/69/35 50/70/36 48/68/35
f 51/71/36 52/72/37 50/70/36
f 53/73/37 54/74/38 52/72/37
f 55/75/38 56/76/39 54/74/38
f 57/77/39 58/78/40 56/76/39
f 51/79/41 35/80/41 27/81/41
f 59/82/40 60/83/42 58/78/40
f 61/84/42 22/85/22 60/83/42
f 36/86/43 52/87/43 60/88/43
f 23/42/22 25/45/23 24/43/23
f 25/45/23 27/47/24 26/46/24
f 27/47/24 29/49/25 28/48/25
f 29/49/25 31/51/26 30/50/26
f 31/51/26 33/53/27 32/52/27
f 33/53/27 35/55/28 34/54/28
f 35/55/28 37/57/29 36/56/29
f 37/57/29 39/59/30 38/58/30
f 39/59/30 41/61/31 40/60/31
f 41/61/31 43/63/32 42/62/32
f 43/63/32 45/65/33 44/64/33
f 45/65/33 47/67/34 46/66/34
f 47/67/34 49/69/35 48/68/35
f 49/69/35 51/71/36 50/70/36
f 51/71/36 53/73/37 52/72/37
f 53/73/37 55/75/38 54/74/38
f 55/75/38 57/77/39 56/76/39
f 57/77/39 59/82/40 58/78/40
f 27/81/41 25/89/41 23/90/41
f 23/90/41 61/91/41 59/92/41
f 59/92/41 57/93/41 55/94/41
f 55/94/41 53/95/41 51/79/41
f 51/79/41 49/96/41 47/97/41
f 47/97/41 45/98/41 43/99/41
f 43/99/41 41/100/41 39/101/41
f 39/101/41 37/102/41 35/80/41
f 35/80/41 33/103/41 31/104/41
f 31/104/41 29/105/41 27/81/41
f 27/81/41 23/90/41 59/92/41
f 59/92/41 55/94/41 51/79/41
f 51/79/41 47/97/41 43/99/41
f 43/99/41 39/101/41 35/80/41
f 35/80/41 31/104/41 27/81/41
f 27/81/41 59/92/41 51/79/41
f 51/79/41 43/99/41 35/80/41
f 59/82/40 61/84/42 60/83/42
f 61/84/42 23/106/22 22/85/22
f 60/88/43 22/107/43 24/108/43
f 24/108/43 26/109/43 28/110/43
f 28/110/43 30/111/43 32/112/43
f 32/112/43 34/113/43 36/86/43
f 36/86/43 38/114/43 40/115/43
f 40/115/43 42/116/43 44/117/43
f 44/117/43 46/118/43 48/119/43
f 48/119/43 50/120/43 52/87/43
f 52/87/43 54/121/43 56/122/43
f 56/122/43 58/123/43 60/88/43
f 60/88/43 24/108/43 28/110/43
f 28/110/43 32/112/43 36/86/43
f 36/86/43 40/115/43 44/117/43
f 44/117/43 48/119/43 52/87/43
f 52/87/43 56/122/43 60/88/43
f 60/88/43 28/110/43 36/86/43
f 36/86/43 44/117/43 52/87/43
